<svg xmlns="http://www.w3.org/2000/svg" xmlns:xlink="http://www.w3.org/1999/xlink" width="32.338" height="31.529" viewBox="0 0 32.338 31.529">
  <defs>
    <clipPath id="clip-path">
      <rect id="Rectangle_605356" data-name="Rectangle 605356" width="32.338" height="31.529" rx="2" fill="none"/>
    </clipPath>
  </defs>
  <g id="_4_Icon_Acrobat" data-name="4_Icon_Acrobat" transform="translate(27.693 27)">
    <g id="Group_601127" data-name="Group 601127" transform="translate(-27.693 -27)">
      <g id="Group_601126" data-name="Group 601126" clip-path="url(#clip-path)">
        <path id="Path_1036432" data-name="Path 1036432" d="M5.727,0H26.611a5.727,5.727,0,0,1,5.727,5.727V25.8a5.726,5.726,0,0,1-5.727,5.727H5.727A5.726,5.726,0,0,1,0,25.8V5.727A5.727,5.727,0,0,1,5.727,0" fill="#b30b00"/>
        <path id="Path_1036433" data-name="Path 1036433" d="M30.188,22.459c-1.514-1.61-5.7-.955-6.682-.791a17.065,17.065,0,0,1-2.8-3.682,16.389,16.389,0,0,0,.955-4.828c0-1.473-.586-3.055-2.223-3.055a1.657,1.657,0,0,0-1.377.8c-.7,1.2-.423,3.682.7,6.191a41.858,41.858,0,0,1-2.836,6.655c-1.677.669-5.237,2.305-5.578,4.119a1.533,1.533,0,0,0,.491,1.446,2.075,2.075,0,0,0,1.446.518c2.141,0,4.282-2.973,5.728-5.523a36.357,36.357,0,0,1,5.1-1.337,8.13,8.13,0,0,0,5.305,2.278c1.391,0,1.909-.6,2.1-1.1a1.7,1.7,0,0,0-.327-1.691M28.715,23.5c-.068.4-.573.791-1.513.586a7.566,7.566,0,0,1-2.973-1.5,12.365,12.365,0,0,1,3.668-.055c.436.082.941.328.818.969M18.95,11.425a.549.549,0,0,1,.478-.3c.518,0,.627.627.627,1.146a15.934,15.934,0,0,1-.682,3.641c-.873-2.319-.75-3.928-.423-4.487m-.123,11.333a34.235,34.235,0,0,0,1.35-3.246,17.2,17.2,0,0,0,1.855,2.428,30.691,30.691,0,0,0-3.2.818M15.4,25.1c-1.377,2.209-2.728,3.6-3.518,3.6a.558.558,0,0,1-.355-.123.508.508,0,0,1-.177-.5c.15-.791,1.718-1.937,4.05-2.973" transform="translate(-4.292 -4.204)" fill="#fff"/>
      </g>
    </g>
  </g>
</svg>
